# Wavefront OBJ file automatically generated by Tiled2Unity

# Vertices (Count = 165)
v 0 -27.8400001525879 0
v -0.319999992847443 -27.8400001525879 0
v -0.319999992847443 -27.519998550415 0
v 0 -27.519998550415 0
v -0.639999985694885 -27.8400001525879 0
v -0.639999985694885 -27.519998550415 0
v -0.959999978542328 -27.8400001525879 0
v -0.959999978542328 -27.519998550415 0
v -1.27999997138977 -27.8400001525879 0
v -1.27999997138977 -27.519998550415 0
v -1.59999990463257 -27.8400001525879 0
v -1.59999990463257 -27.519998550415 0
v -1.91999995708466 -27.8400001525879 0
v -1.91999995708466 -27.519998550415 0
v 0 -28.1599998474121 0
v -0.319999992847443 -28.1599998474121 0
v -0.639999985694885 -28.1599998474121 0
v -0.959999978542328 -28.1599998474121 0
v -1.27999997138977 -28.1599998474121 0
v -1.59999990463257 -28.1599998474121 0
v -1.91999995708466 -28.1599998474121 0
v 0 -28.4799995422363 0
v -0.319999992847443 -28.4799995422363 0
v -0.639999985694885 -28.4799995422363 0
v -0.959999978542328 -28.4799995422363 0
v -1.27999997138977 -28.4799995422363 0
v -1.59999990463257 -28.4799995422363 0
v -1.91999995708466 -28.4799995422363 0
v 0 -28.7999992370605 0
v -0.319999992847443 -28.7999992370605 0
v -0.639999985694885 -28.7999992370605 0
v -0.959999978542328 -28.7999992370605 0
v -1.27999997138977 -28.7999992370605 0
v -1.59999990463257 -28.7999992370605 0
v -1.91999995708466 -28.7999992370605 0
v 0 -29.1199989318848 0
v -0.319999992847443 -29.1199989318848 0
v -0.639999985694885 -29.1199989318848 0
v -0.959999978542328 -29.1199989318848 0
v -1.27999997138977 -29.1199989318848 0
v -1.59999990463257 -29.1199989318848 0
v -1.91999995708466 -29.1199989318848 0
v 0 -29.439998626709 0
v -0.319999992847443 -29.439998626709 0
v -0.639999985694885 -29.439998626709 0
v -0.959999978542328 -29.439998626709 0
v -1.27999997138977 -29.439998626709 0
v -1.59999990463257 -29.439998626709 0
v -1.91999995708466 -29.439998626709 0
v 0 -29.7600002288818 0
v -0.319999992847443 -29.7600002288818 0
v -0.639999985694885 -29.7600002288818 0
v -0.959999978542328 -29.7600002288818 0
v -1.27999997138977 -29.7600002288818 0
v -1.59999990463257 -29.7600002288818 0
v -1.91999995708466 -29.7600002288818 0
v 0 -30.0799999237061 0
v -0.319999992847443 -30.0799999237061 0
v -0.639999985694885 -30.0799999237061 0
v -0.959999978542328 -30.0799999237061 0
v -1.27999997138977 -30.0799999237061 0
v -1.59999990463257 -30.0799999237061 0
v -1.91999995708466 -30.0799999237061 0
v 0 -30.3999996185303 0
v -0.319999992847443 -30.3999996185303 0
v -0.639999985694885 -30.3999996185303 0
v -0.959999978542328 -30.3999996185303 0
v -1.27999997138977 -30.3999996185303 0
v -1.59999990463257 -30.3999996185303 0
v -1.91999995708466 -30.3999996185303 0
v 0 -30.7199993133545 0
v -0.319999992847443 -30.7199993133545 0
v -0.639999985694885 -30.7199993133545 0
v -0.959999978542328 -30.7199993133545 0
v -1.27999997138977 -30.7199993133545 0
v -1.59999990463257 -30.7199993133545 0
v -1.91999995708466 -30.7199993133545 0
v -2.24000000953674 -30.7199993133545 0
v -2.24000000953674 -30.3999996185303 0
v -2.55999994277954 -30.7199993133545 0
v -2.55999994277954 -30.3999996185303 0
v -2.87999987602234 -30.7199993133545 0
v -2.87999987602234 -30.3999996185303 0
v -3.19999980926514 -30.7199993133545 0
v -3.19999980926514 -30.3999996185303 0
v -3.51999998092651 -30.7199993133545 0
v -3.51999998092651 -30.3999996185303 0
v -3.83999991416931 -30.7199993133545 0
v -3.83999991416931 -30.3999996185303 0
v -4.15999984741211 -30.7199993133545 0
v -4.15999984741211 -30.3999996185303 0
v -4.48000001907349 -30.7199993133545 0
v -4.48000001907349 -30.3999996185303 0
v -4.79999971389771 -30.7199993133545 0
v -4.79999971389771 -30.3999996185303 0
v -5.11999988555908 -30.7199993133545 0
v -5.11999988555908 -30.3999996185303 0
v 0 -31.0399990081787 0
v -0.319999992847443 -31.0399990081787 0
v -0.639999985694885 -31.0399990081787 0
v -0.959999978542328 -31.0399990081787 0
v -1.27999997138977 -31.0399990081787 0
v -1.59999990463257 -31.0399990081787 0
v -1.91999995708466 -31.0399990081787 0
v -2.24000000953674 -31.0399990081787 0
v -2.55999994277954 -31.0399990081787 0
v -2.87999987602234 -31.0399990081787 0
v -3.19999980926514 -31.0399990081787 0
v -3.51999998092651 -31.0399990081787 0
v -3.83999991416931 -31.0399990081787 0
v -4.15999984741211 -31.0399990081787 0
v -4.48000001907349 -31.0399990081787 0
v -4.79999971389771 -31.0399990081787 0
v -5.11999988555908 -31.0399990081787 0
v 0 -31.3599987030029 0
v -0.319999992847443 -31.3599987030029 0
v -0.639999985694885 -31.3599987030029 0
v -0.959999978542328 -31.3599987030029 0
v -1.27999997138977 -31.3599987030029 0
v -1.59999990463257 -31.3599987030029 0
v -1.91999995708466 -31.3599987030029 0
v -2.24000000953674 -31.3599987030029 0
v -2.55999994277954 -31.3599987030029 0
v -2.87999987602234 -31.3599987030029 0
v -3.19999980926514 -31.3599987030029 0
v -3.51999998092651 -31.3599987030029 0
v -3.83999991416931 -31.3599987030029 0
v -4.15999984741211 -31.3599987030029 0
v -4.48000001907349 -31.3599987030029 0
v -4.79999971389771 -31.3599987030029 0
v -5.11999988555908 -31.3599987030029 0
v 0 -31.6799983978271 0
v -0.319999992847443 -31.6799983978271 0
v -0.639999985694885 -31.6799983978271 0
v -0.959999978542328 -31.6799983978271 0
v -1.27999997138977 -31.6799983978271 0
v -1.59999990463257 -31.6799983978271 0
v -1.91999995708466 -31.6799983978271 0
v -2.24000000953674 -31.6799983978271 0
v -2.55999994277954 -31.6799983978271 0
v -2.87999987602234 -31.6799983978271 0
v -3.19999980926514 -31.6799983978271 0
v -3.51999998092651 -31.6799983978271 0
v -3.83999991416931 -31.6799983978271 0
v -4.15999984741211 -31.6799983978271 0
v -4.48000001907349 -31.6799983978271 0
v -4.79999971389771 -31.6799983978271 0
v -5.11999988555908 -31.6799983978271 0
v 0 -32 0
v -0.319999992847443 -32 0
v -0.639999985694885 -32 0
v -0.959999978542328 -32 0
v -1.27999997138977 -32 0
v -1.59999990463257 -32 0
v -1.91999995708466 -32 0
v -2.24000000953674 -32 0
v -2.55999994277954 -32 0
v -2.87999987602234 -32 0
v -3.19999980926514 -32 0
v -3.51999998092651 -32 0
v -3.83999991416931 -32 0
v -4.15999984741211 -32 0
v -4.48000001907349 -32 0
v -4.79999971389771 -32 0
v -5.11999988555908 -32 0

# Texture Coorindates (Count = 20)
vt 0.1251221 0.8334554
vt 0.2498779 0.8334554
vt 0.2498779 0.9998779
vt 0.1251221 0.9998779
vt 0.2501221 0.8334554
vt 0.3748779 0.8334554
vt 0.3748779 0.9998779
vt 0.2501221 0.9998779
vt 0.1251221 0.6667888
vt 0.2498779 0.6667888
vt 0.2498779 0.8332112
vt 0.1251221 0.8332112
vt 0.2501221 0.6667888
vt 0.3748779 0.6667888
vt 0.3748779 0.8332112
vt 0.2501221 0.8332112
vt 0.0001220703 0.0001220703
vt 0.1248779 0.0001220703
vt 0.1248779 0.1665446
vt 0.0001220703 0.1665446

# Normal
vn 0 0 -1

# Groups (Count = 1)
g mesh_[00]_[00]
f  1/1/1  2/2/1  3/3/1  4/4/1 
f  2/1/1  5/2/1  6/3/1  3/4/1 
f  5/1/1  7/2/1  8/3/1  6/4/1 
f  7/1/1  9/2/1  10/3/1  8/4/1 
f  9/1/1  11/2/1  12/3/1  10/4/1 
f  11/5/1  13/6/1  14/7/1  12/8/1 
f  15/9/1  16/10/1  2/11/1  1/12/1 
f  16/9/1  17/10/1  5/11/1  2/12/1 
f  17/9/1  18/10/1  7/11/1  5/12/1 
f  18/9/1  19/10/1  9/11/1  7/12/1 
f  19/9/1  20/10/1  11/11/1  9/12/1 
f  20/13/1  21/14/1  13/15/1  11/16/1 
f  22/9/1  23/10/1  16/11/1  15/12/1 
f  23/9/1  24/10/1  17/11/1  16/12/1 
f  24/9/1  25/10/1  18/11/1  17/12/1 
f  25/9/1  26/10/1  19/11/1  18/12/1 
f  26/9/1  27/10/1  20/11/1  19/12/1 
f  27/13/1  28/14/1  21/15/1  20/16/1 
f  29/9/1  30/10/1  23/11/1  22/12/1 
f  30/9/1  31/10/1  24/11/1  23/12/1 
f  31/9/1  32/10/1  25/11/1  24/12/1 
f  32/9/1  33/10/1  26/11/1  25/12/1 
f  33/9/1  34/10/1  27/11/1  26/12/1 
f  34/13/1  35/14/1  28/15/1  27/16/1 
f  36/9/1  37/10/1  30/11/1  29/12/1 
f  37/9/1  38/10/1  31/11/1  30/12/1 
f  38/9/1  39/10/1  32/11/1  31/12/1 
f  39/9/1  40/10/1  33/11/1  32/12/1 
f  40/9/1  41/10/1  34/11/1  33/12/1 
f  41/13/1  42/14/1  35/15/1  34/16/1 
f  43/9/1  44/10/1  37/11/1  36/12/1 
f  44/9/1  45/10/1  38/11/1  37/12/1 
f  45/9/1  46/10/1  39/11/1  38/12/1 
f  46/9/1  47/10/1  40/11/1  39/12/1 
f  47/9/1  48/10/1  41/11/1  40/12/1 
f  48/13/1  49/14/1  42/15/1  41/16/1 
f  50/9/1  51/10/1  44/11/1  43/12/1 
f  51/9/1  52/10/1  45/11/1  44/12/1 
f  52/9/1  53/10/1  46/11/1  45/12/1 
f  53/9/1  54/10/1  47/11/1  46/12/1 
f  54/9/1  55/10/1  48/11/1  47/12/1 
f  55/13/1  56/14/1  49/15/1  48/16/1 
f  57/9/1  58/10/1  51/11/1  50/12/1 
f  58/9/1  59/10/1  52/11/1  51/12/1 
f  59/9/1  60/10/1  53/11/1  52/12/1 
f  60/9/1  61/10/1  54/11/1  53/12/1 
f  61/9/1  62/10/1  55/11/1  54/12/1 
f  62/13/1  63/14/1  56/15/1  55/16/1 
f  64/9/1  65/10/1  58/11/1  57/12/1 
f  65/9/1  66/10/1  59/11/1  58/12/1 
f  66/9/1  67/10/1  60/11/1  59/12/1 
f  67/9/1  68/10/1  61/11/1  60/12/1 
f  68/9/1  69/10/1  62/11/1  61/12/1 
f  69/13/1  70/14/1  63/15/1  62/16/1 
f  71/9/1  72/10/1  65/11/1  64/12/1 
f  72/9/1  73/10/1  66/11/1  65/12/1 
f  73/9/1  74/10/1  67/11/1  66/12/1 
f  74/9/1  75/10/1  68/11/1  67/12/1 
f  75/9/1  76/10/1  69/11/1  68/12/1 
f  76/17/1  77/18/1  70/19/1  69/20/1 
f  77/1/1  78/2/1  79/3/1  70/4/1 
f  78/1/1  80/2/1  81/3/1  79/4/1 
f  80/1/1  82/2/1  83/3/1  81/4/1 
f  82/1/1  84/2/1  85/3/1  83/4/1 
f  84/1/1  86/2/1  87/3/1  85/4/1 
f  86/1/1  88/2/1  89/3/1  87/4/1 
f  88/1/1  90/2/1  91/3/1  89/4/1 
f  90/1/1  92/2/1  93/3/1  91/4/1 
f  92/1/1  94/2/1  95/3/1  93/4/1 
f  94/5/1  96/6/1  97/7/1  95/8/1 
f  98/9/1  99/10/1  72/11/1  71/12/1 
f  99/9/1  100/10/1  73/11/1  72/12/1 
f  100/9/1  101/10/1  74/11/1  73/12/1 
f  101/9/1  102/10/1  75/11/1  74/12/1 
f  102/9/1  103/10/1  76/11/1  75/12/1 
f  103/9/1  104/10/1  77/11/1  76/12/1 
f  104/9/1  105/10/1  78/11/1  77/12/1 
f  105/9/1  106/10/1  80/11/1  78/12/1 
f  106/9/1  107/10/1  82/11/1  80/12/1 
f  107/9/1  108/10/1  84/11/1  82/12/1 
f  108/9/1  109/10/1  86/11/1  84/12/1 
f  109/9/1  110/10/1  88/11/1  86/12/1 
f  110/9/1  111/10/1  90/11/1  88/12/1 
f  111/9/1  112/10/1  92/11/1  90/12/1 
f  112/9/1  113/10/1  94/11/1  92/12/1 
f  113/13/1  114/14/1  96/15/1  94/16/1 
f  115/9/1  116/10/1  99/11/1  98/12/1 
f  116/9/1  117/10/1  100/11/1  99/12/1 
f  117/9/1  118/10/1  101/11/1  100/12/1 
f  118/9/1  119/10/1  102/11/1  101/12/1 
f  119/9/1  120/10/1  103/11/1  102/12/1 
f  120/9/1  121/10/1  104/11/1  103/12/1 
f  121/9/1  122/10/1  105/11/1  104/12/1 
f  122/9/1  123/10/1  106/11/1  105/12/1 
f  123/9/1  124/10/1  107/11/1  106/12/1 
f  124/9/1  125/10/1  108/11/1  107/12/1 
f  125/9/1  126/10/1  109/11/1  108/12/1 
f  126/9/1  127/10/1  110/11/1  109/12/1 
f  127/9/1  128/10/1  111/11/1  110/12/1 
f  128/9/1  129/10/1  112/11/1  111/12/1 
f  129/9/1  130/10/1  113/11/1  112/12/1 
f  130/13/1  131/14/1  114/15/1  113/16/1 
f  132/9/1  133/10/1  116/11/1  115/12/1 
f  133/9/1  134/10/1  117/11/1  116/12/1 
f  134/9/1  135/10/1  118/11/1  117/12/1 
f  135/9/1  136/10/1  119/11/1  118/12/1 
f  136/9/1  137/10/1  120/11/1  119/12/1 
f  137/9/1  138/10/1  121/11/1  120/12/1 
f  138/9/1  139/10/1  122/11/1  121/12/1 
f  139/9/1  140/10/1  123/11/1  122/12/1 
f  140/9/1  141/10/1  124/11/1  123/12/1 
f  141/9/1  142/10/1  125/11/1  124/12/1 
f  142/9/1  143/10/1  126/11/1  125/12/1 
f  143/9/1  144/10/1  127/11/1  126/12/1 
f  144/9/1  145/10/1  128/11/1  127/12/1 
f  145/9/1  146/10/1  129/11/1  128/12/1 
f  146/9/1  147/10/1  130/11/1  129/12/1 
f  147/13/1  148/14/1  131/15/1  130/16/1 
f  149/9/1  150/10/1  133/11/1  132/12/1 
f  150/9/1  151/10/1  134/11/1  133/12/1 
f  151/9/1  152/10/1  135/11/1  134/12/1 
f  152/9/1  153/10/1  136/11/1  135/12/1 
f  153/9/1  154/10/1  137/11/1  136/12/1 
f  154/9/1  155/10/1  138/11/1  137/12/1 
f  155/9/1  156/10/1  139/11/1  138/12/1 
f  156/9/1  157/10/1  140/11/1  139/12/1 
f  157/9/1  158/10/1  141/11/1  140/12/1 
f  158/9/1  159/10/1  142/11/1  141/12/1 
f  159/9/1  160/10/1  143/11/1  142/12/1 
f  160/9/1  161/10/1  144/11/1  143/12/1 
f  161/9/1  162/10/1  145/11/1  144/12/1 
f  162/9/1  163/10/1  146/11/1  145/12/1 
f  163/9/1  164/10/1  147/11/1  146/12/1 
f  164/13/1  165/14/1  148/15/1  147/16/1 
